<?xml version="1.0" encoding="iso-8859-1"?>
<!-- Generator: Adobe Illustrator 19.0.0, SVG Export Plug-In . SVG Version: 6.00 Build 0)  -->
<svg xmlns="http://www.w3.org/2000/svg" xmlns:xlink="http://www.w3.org/1999/xlink" version="1.1" id="Capa_1" x="0px" y="0px" viewBox="0 0 512 512" style="enable-background:new 0 0 512 512;" xml:space="preserve" width="512px" height="512px">
<g>
	<g>
		<path d="M481.422,428.828c-25.085-50.171-38.345-106.339-38.345-162.433v-30.087c0-86.12-58.501-158.823-137.846-180.49v-6.587    C305.231,22.085,283.146,0,256,0s-49.231,22.085-49.231,49.231v6.587c-79.345,21.666-137.846,94.369-137.846,180.49v30.087    c0,56.094-13.26,112.262-38.345,162.433c-1.526,3.052-1.363,6.677,0.431,9.579c1.793,2.904,4.962,4.67,8.375,4.67h138.773    C182.871,481.854,215.971,512,256,512s73.128-30.146,77.843-68.923h138.773c3.413,0,6.582-1.766,8.375-4.67    C482.785,435.504,482.948,431.88,481.422,428.828z M226.461,49.231c0-16.288,13.251-29.538,29.538-29.538    s29.538,13.251,29.538,29.538v2.328c-0.23-0.036-0.463-0.067-0.693-0.103c-0.409-0.063-0.818-0.121-1.228-0.182    c-0.986-0.146-1.973-0.286-2.962-0.416c-0.531-0.07-1.062-0.139-1.595-0.205c-0.937-0.115-1.876-0.221-2.815-0.323    c-0.501-0.054-1-0.113-1.503-0.163c-1.355-0.135-2.712-0.256-4.069-0.362c-0.473-0.036-0.948-0.065-1.422-0.099    c-0.975-0.069-1.95-0.133-2.926-0.186c-0.544-0.03-1.088-0.055-1.633-0.081c-0.975-0.045-1.95-0.082-2.924-0.111    c-0.477-0.015-0.953-0.031-1.431-0.042c-1.445-0.032-2.892-0.054-4.338-0.054c-1.446,0-2.893,0.022-4.339,0.055    c-0.478,0.011-0.954,0.028-1.431,0.042c-0.976,0.03-1.951,0.067-2.924,0.111c-0.544,0.025-1.089,0.051-1.633,0.081    c-0.976,0.053-1.951,0.117-2.926,0.186c-0.474,0.033-0.949,0.061-1.422,0.098c-1.358,0.106-2.715,0.227-4.069,0.362    c-0.502,0.05-1.001,0.109-1.503,0.163c-0.939,0.101-1.878,0.208-2.815,0.323c-0.533,0.066-1.064,0.135-1.595,0.205    c-0.989,0.13-1.975,0.27-2.962,0.416c-0.41,0.061-0.819,0.119-1.228,0.182c-0.229,0.035-0.462,0.066-0.692,0.102V49.231z     M256,492.308c-29.153,0-53.415-21.347-57.978-49.231h115.956C309.415,470.96,285.153,492.308,256,492.308z M54.946,423.385    c2.91-6.484,5.633-13.053,8.176-19.692h55.031c5.438,0,9.846-4.408,9.846-9.846c0-5.438-4.408-9.846-9.846-9.846H70.056    c12.214-37.935,18.559-77.787,18.559-117.605v-30.087c0-80.575,57.23-148.03,133.174-163.865c0.228-0.047,0.456-0.098,0.684-0.145    c0.905-0.185,1.816-0.354,2.725-0.524c0.642-0.119,1.283-0.24,1.927-0.352c0.642-0.112,1.286-0.216,1.931-0.321    c0.972-0.157,1.945-0.308,2.92-0.448c0.386-0.056,0.773-0.109,1.16-0.162c1.304-0.177,2.608-0.343,3.916-0.489    c0.106-0.012,0.213-0.025,0.319-0.036c12.357-1.361,24.899-1.361,37.256,0c0.106,0.012,0.214,0.025,0.32,0.036    c1.308,0.147,2.612,0.312,3.916,0.489c0.387,0.053,0.774,0.107,1.16,0.162c0.976,0.14,1.949,0.291,2.92,0.448    c0.644,0.104,1.289,0.209,1.931,0.321c0.644,0.111,1.285,0.232,1.927,0.352c0.91,0.17,1.821,0.339,2.725,0.524    c0.228,0.046,0.456,0.097,0.684,0.145c75.943,15.835,133.173,83.29,133.173,163.865v30.087c0,53.879,11.603,107.821,33.669,156.99    H54.946z" fill="#1d4620"/>
	</g>
</g>
<g>
	<g>
		<path d="M157.341,391.926c-0.118-0.63-0.315-1.25-0.561-1.841c-0.246-0.601-0.551-1.172-0.906-1.703    c-0.354-0.542-0.768-1.044-1.221-1.497c-0.453-0.453-0.955-0.866-1.497-1.221c-0.532-0.354-1.103-0.66-1.703-0.906    c-0.591-0.246-1.211-0.443-1.841-0.561c-1.27-0.256-2.57-0.256-3.84,0c-0.63,0.118-1.25,0.315-1.841,0.561    c-0.601,0.246-1.172,0.551-1.703,0.906c-0.542,0.354-1.044,0.768-1.497,1.221c-0.453,0.453-0.866,0.955-1.221,1.497    c-0.354,0.532-0.66,1.103-0.906,1.703c-0.246,0.591-0.443,1.211-0.561,1.841c-0.128,0.63-0.197,1.28-0.197,1.92    s0.069,1.29,0.197,1.92c0.118,0.63,0.315,1.25,0.561,1.841c0.246,0.601,0.551,1.172,0.906,1.703    c0.354,0.542,0.768,1.044,1.221,1.497c0.453,0.453,0.955,0.866,1.497,1.221c0.532,0.354,1.103,0.66,1.703,0.906    c0.591,0.246,1.211,0.443,1.841,0.561c0.63,0.128,1.28,0.197,1.92,0.197c0.64,0,1.29-0.069,1.92-0.197    c0.63-0.118,1.25-0.315,1.841-0.561c0.601-0.246,1.172-0.551,1.703-0.906c0.542-0.354,1.044-0.768,1.497-1.221    c0.453-0.453,0.867-0.955,1.221-1.497c0.354-0.532,0.66-1.103,0.906-1.703c0.246-0.591,0.443-1.211,0.561-1.841    c0.128-0.63,0.197-1.28,0.197-1.92C157.538,393.206,157.469,392.556,157.341,391.926z" fill="#1d4620"/>
	</g>
</g>
<g>
</g>
<g>
</g>
<g>
</g>
<g>
</g>
<g>
</g>
<g>
</g>
<g>
</g>
<g>
</g>
<g>
</g>
<g>
</g>
<g>
</g>
<g>
</g>
<g>
</g>
<g>
</g>
<g>
</g>
</svg>
